<?xml version="1.0" encoding="UTF-8" standalone="no"?>
<!DOCTYPE svg PUBLIC "-//W3C//DTD SVG 1.1//EN"
 "http://www.w3.org/Graphics/SVG/1.1/DTD/svg11.dtd">
<!-- Generated by graphviz version 2.38.0 (20140413.2041)
 -->
<!-- Title: Tree Pages: 1 -->
<svg width="746pt" height="581pt"
 viewBox="0.00 0.00 746.00 581.00" xmlns="http://www.w3.org/2000/svg" xmlns:xlink="http://www.w3.org/1999/xlink">
<g id="graph0" class="graph" transform="scale(1 1) rotate(0) translate(4 577)">
<title>Tree</title>
<polygon fill="white" stroke="none" points="-4,4 -4,-577 742,-577 742,4 -4,4"/>
<!-- 0 -->
<g id="node1" class="node"><title>0</title>
<polygon fill="#fffdfd" stroke="black" points="272,-573 114,-573 114,-505 272,-505 272,-573"/>
<text text-anchor="middle" x="193" y="-557.8" font-family="Times New Roman,serif" font-size="14.00">petal length (cm) &lt;= 2.45</text>
<text text-anchor="middle" x="193" y="-542.8" font-family="Times New Roman,serif" font-size="14.00">samples = 120</text>
<text text-anchor="middle" x="193" y="-527.8" font-family="Times New Roman,serif" font-size="14.00">value = [41, 40, 39]</text>
<text text-anchor="middle" x="193" y="-512.8" font-family="Times New Roman,serif" font-size="14.00">class = setosa</text>
</g>
<!-- 1 -->
<g id="node2" class="node"><title>1</title>
<polygon fill="#e58139" stroke="black" points="173,-461.5 61,-461.5 61,-408.5 173,-408.5 173,-461.5"/>
<text text-anchor="middle" x="117" y="-446.3" font-family="Times New Roman,serif" font-size="14.00">samples = 41</text>
<text text-anchor="middle" x="117" y="-431.3" font-family="Times New Roman,serif" font-size="14.00">value = [41, 0, 0]</text>
<text text-anchor="middle" x="117" y="-416.3" font-family="Times New Roman,serif" font-size="14.00">class = setosa</text>
</g>
<!-- 0&#45;&gt;1 -->
<g id="edge1" class="edge"><title>0&#45;&gt;1</title>
<path fill="none" stroke="black" d="M168.325,-504.884C159.967,-493.666 150.623,-481.126 142.223,-469.852"/>
<polygon fill="black" stroke="black" points="144.796,-467.448 136.015,-461.52 139.183,-471.63 144.796,-467.448"/>
<text text-anchor="middle" x="132.402" y="-482.557" font-family="Times New Roman,serif" font-size="14.00">True</text>
</g>
<!-- 2 -->
<g id="node3" class="node"><title>2</title>
<polygon fill="#fafefc" stroke="black" points="346.5,-469 191.5,-469 191.5,-401 346.5,-401 346.5,-469"/>
<text text-anchor="middle" x="269" y="-453.8" font-family="Times New Roman,serif" font-size="14.00">petal width (cm) &lt;= 1.55</text>
<text text-anchor="middle" x="269" y="-438.8" font-family="Times New Roman,serif" font-size="14.00">samples = 79</text>
<text text-anchor="middle" x="269" y="-423.8" font-family="Times New Roman,serif" font-size="14.00">value = [0, 40, 39]</text>
<text text-anchor="middle" x="269" y="-408.8" font-family="Times New Roman,serif" font-size="14.00">class = versicolor</text>
</g>
<!-- 0&#45;&gt;2 -->
<g id="edge2" class="edge"><title>0&#45;&gt;2</title>
<path fill="none" stroke="black" d="M217.675,-504.884C224.179,-496.154 231.28,-486.625 238.068,-477.514"/>
<polygon fill="black" stroke="black" points="241.02,-479.409 244.189,-469.299 235.407,-475.227 241.02,-479.409"/>
<text text-anchor="middle" x="247.802" y="-490.337" font-family="Times New Roman,serif" font-size="14.00">False</text>
</g>
<!-- 3 -->
<g id="node4" class="node"><title>3</title>
<polygon fill="#3ee684" stroke="black" points="261,-365 103,-365 103,-297 261,-297 261,-365"/>
<text text-anchor="middle" x="182" y="-349.8" font-family="Times New Roman,serif" font-size="14.00">petal length (cm) &lt;= 5.25</text>
<text text-anchor="middle" x="182" y="-334.8" font-family="Times New Roman,serif" font-size="14.00">samples = 38</text>
<text text-anchor="middle" x="182" y="-319.8" font-family="Times New Roman,serif" font-size="14.00">value = [0, 37, 1]</text>
<text text-anchor="middle" x="182" y="-304.8" font-family="Times New Roman,serif" font-size="14.00">class = versicolor</text>
</g>
<!-- 2&#45;&gt;3 -->
<g id="edge3" class="edge"><title>2&#45;&gt;3</title>
<path fill="none" stroke="black" d="M240.754,-400.884C233.156,-391.976 224.848,-382.235 216.934,-372.957"/>
<polygon fill="black" stroke="black" points="219.555,-370.636 210.402,-365.299 214.229,-375.179 219.555,-370.636"/>
</g>
<!-- 6 -->
<g id="node7" class="node"><title>6</title>
<polygon fill="#8b49e7" stroke="black" points="434.5,-365 279.5,-365 279.5,-297 434.5,-297 434.5,-365"/>
<text text-anchor="middle" x="357" y="-349.8" font-family="Times New Roman,serif" font-size="14.00">petal width (cm) &lt;= 1.75</text>
<text text-anchor="middle" x="357" y="-334.8" font-family="Times New Roman,serif" font-size="14.00">samples = 41</text>
<text text-anchor="middle" x="357" y="-319.8" font-family="Times New Roman,serif" font-size="14.00">value = [0, 3, 38]</text>
<text text-anchor="middle" x="357" y="-304.8" font-family="Times New Roman,serif" font-size="14.00">class = virginica</text>
</g>
<!-- 2&#45;&gt;6 -->
<g id="edge6" class="edge"><title>2&#45;&gt;6</title>
<path fill="none" stroke="black" d="M297.571,-400.884C305.256,-391.976 313.66,-382.235 321.665,-372.957"/>
<polygon fill="black" stroke="black" points="324.389,-375.157 328.271,-365.299 319.089,-370.585 324.389,-375.157"/>
</g>
<!-- 4 -->
<g id="node5" class="node"><title>4</title>
<polygon fill="#39e581" stroke="black" points="116,-253.5 0,-253.5 0,-200.5 116,-200.5 116,-253.5"/>
<text text-anchor="middle" x="58" y="-238.3" font-family="Times New Roman,serif" font-size="14.00">samples = 37</text>
<text text-anchor="middle" x="58" y="-223.3" font-family="Times New Roman,serif" font-size="14.00">value = [0, 37, 0]</text>
<text text-anchor="middle" x="58" y="-208.3" font-family="Times New Roman,serif" font-size="14.00">class = versicolor</text>
</g>
<!-- 3&#45;&gt;4 -->
<g id="edge4" class="edge"><title>3&#45;&gt;4</title>
<path fill="none" stroke="black" d="M141.741,-296.884C127.301,-285.006 111.06,-271.646 96.7512,-259.876"/>
<polygon fill="black" stroke="black" points="98.9706,-257.17 89.0242,-253.52 94.5237,-262.576 98.9706,-257.17"/>
</g>
<!-- 5 -->
<g id="node6" class="node"><title>5</title>
<polygon fill="#8139e5" stroke="black" points="241.5,-253.5 134.5,-253.5 134.5,-200.5 241.5,-200.5 241.5,-253.5"/>
<text text-anchor="middle" x="188" y="-238.3" font-family="Times New Roman,serif" font-size="14.00">samples = 1</text>
<text text-anchor="middle" x="188" y="-223.3" font-family="Times New Roman,serif" font-size="14.00">value = [0, 0, 1]</text>
<text text-anchor="middle" x="188" y="-208.3" font-family="Times New Roman,serif" font-size="14.00">class = virginica</text>
</g>
<!-- 3&#45;&gt;5 -->
<g id="edge5" class="edge"><title>3&#45;&gt;5</title>
<path fill="none" stroke="black" d="M183.948,-296.884C184.576,-286.216 185.273,-274.352 185.911,-263.519"/>
<polygon fill="black" stroke="black" points="189.405,-263.708 186.499,-253.52 182.418,-263.297 189.405,-263.708"/>
</g>
<!-- 7 -->
<g id="node8" class="node"><title>7</title>
<polygon fill="#ffffff" stroke="black" points="431,-261 271,-261 271,-193 431,-193 431,-261"/>
<text text-anchor="middle" x="351" y="-245.8" font-family="Times New Roman,serif" font-size="14.00">sepal length (cm) &lt;= 5.45</text>
<text text-anchor="middle" x="351" y="-230.8" font-family="Times New Roman,serif" font-size="14.00">samples = 4</text>
<text text-anchor="middle" x="351" y="-215.8" font-family="Times New Roman,serif" font-size="14.00">value = [0, 2, 2]</text>
<text text-anchor="middle" x="351" y="-200.8" font-family="Times New Roman,serif" font-size="14.00">class = versicolor</text>
</g>
<!-- 6&#45;&gt;7 -->
<g id="edge7" class="edge"><title>6&#45;&gt;7</title>
<path fill="none" stroke="black" d="M355.052,-296.884C354.575,-288.778 354.058,-279.982 353.557,-271.472"/>
<polygon fill="black" stroke="black" points="357.04,-271.077 352.959,-261.299 350.052,-271.488 357.04,-271.077"/>
</g>
<!-- 12 -->
<g id="node13" class="node"><title>12</title>
<polygon fill="#843ee6" stroke="black" points="607,-261 449,-261 449,-193 607,-193 607,-261"/>
<text text-anchor="middle" x="528" y="-245.8" font-family="Times New Roman,serif" font-size="14.00">petal length (cm) &lt;= 4.85</text>
<text text-anchor="middle" x="528" y="-230.8" font-family="Times New Roman,serif" font-size="14.00">samples = 37</text>
<text text-anchor="middle" x="528" y="-215.8" font-family="Times New Roman,serif" font-size="14.00">value = [0, 1, 36]</text>
<text text-anchor="middle" x="528" y="-200.8" font-family="Times New Roman,serif" font-size="14.00">class = virginica</text>
</g>
<!-- 6&#45;&gt;12 -->
<g id="edge12" class="edge"><title>6&#45;&gt;12</title>
<path fill="none" stroke="black" d="M412.519,-296.884C428.879,-287.125 446.916,-276.366 463.774,-266.31"/>
<polygon fill="black" stroke="black" points="465.672,-269.253 472.467,-261.125 462.086,-263.242 465.672,-269.253"/>
</g>
<!-- 8 -->
<g id="node9" class="node"><title>8</title>
<polygon fill="#8139e5" stroke="black" points="253.5,-149.5 146.5,-149.5 146.5,-96.5 253.5,-96.5 253.5,-149.5"/>
<text text-anchor="middle" x="200" y="-134.3" font-family="Times New Roman,serif" font-size="14.00">samples = 1</text>
<text text-anchor="middle" x="200" y="-119.3" font-family="Times New Roman,serif" font-size="14.00">value = [0, 0, 1]</text>
<text text-anchor="middle" x="200" y="-104.3" font-family="Times New Roman,serif" font-size="14.00">class = virginica</text>
</g>
<!-- 7&#45;&gt;8 -->
<g id="edge8" class="edge"><title>7&#45;&gt;8</title>
<path fill="none" stroke="black" d="M301.975,-192.884C284.065,-180.786 263.88,-167.151 246.223,-155.224"/>
<polygon fill="black" stroke="black" points="248.025,-152.217 237.78,-149.52 244.107,-158.018 248.025,-152.217"/>
</g>
<!-- 9 -->
<g id="node10" class="node"><title>9</title>
<polygon fill="#9cf2c0" stroke="black" points="430,-157 272,-157 272,-89 430,-89 430,-157"/>
<text text-anchor="middle" x="351" y="-141.8" font-family="Times New Roman,serif" font-size="14.00">petal length (cm) &lt;= 5.45</text>
<text text-anchor="middle" x="351" y="-126.8" font-family="Times New Roman,serif" font-size="14.00">samples = 3</text>
<text text-anchor="middle" x="351" y="-111.8" font-family="Times New Roman,serif" font-size="14.00">value = [0, 2, 1]</text>
<text text-anchor="middle" x="351" y="-96.8" font-family="Times New Roman,serif" font-size="14.00">class = versicolor</text>
</g>
<!-- 7&#45;&gt;9 -->
<g id="edge9" class="edge"><title>7&#45;&gt;9</title>
<path fill="none" stroke="black" d="M351,-192.884C351,-184.778 351,-175.982 351,-167.472"/>
<polygon fill="black" stroke="black" points="354.5,-167.299 351,-157.299 347.5,-167.299 354.5,-167.299"/>
</g>
<!-- 10 -->
<g id="node11" class="node"><title>10</title>
<polygon fill="#39e581" stroke="black" points="291,-53 175,-53 175,-0 291,-0 291,-53"/>
<text text-anchor="middle" x="233" y="-37.8" font-family="Times New Roman,serif" font-size="14.00">samples = 2</text>
<text text-anchor="middle" x="233" y="-22.8" font-family="Times New Roman,serif" font-size="14.00">value = [0, 2, 0]</text>
<text text-anchor="middle" x="233" y="-7.8" font-family="Times New Roman,serif" font-size="14.00">class = versicolor</text>
</g>
<!-- 9&#45;&gt;10 -->
<g id="edge10" class="edge"><title>9&#45;&gt;10</title>
<path fill="none" stroke="black" d="M309.729,-88.9485C297.85,-79.4346 284.912,-69.074 273.104,-59.6175"/>
<polygon fill="black" stroke="black" points="275.13,-56.7558 265.137,-53.2367 270.754,-62.2196 275.13,-56.7558"/>
</g>
<!-- 11 -->
<g id="node12" class="node"><title>11</title>
<polygon fill="#8139e5" stroke="black" points="416.5,-53 309.5,-53 309.5,-0 416.5,-0 416.5,-53"/>
<text text-anchor="middle" x="363" y="-37.8" font-family="Times New Roman,serif" font-size="14.00">samples = 1</text>
<text text-anchor="middle" x="363" y="-22.8" font-family="Times New Roman,serif" font-size="14.00">value = [0, 0, 1]</text>
<text text-anchor="middle" x="363" y="-7.8" font-family="Times New Roman,serif" font-size="14.00">class = virginica</text>
</g>
<!-- 9&#45;&gt;11 -->
<g id="edge11" class="edge"><title>9&#45;&gt;11</title>
<path fill="none" stroke="black" d="M355.197,-88.9485C356.254,-80.6238 357.394,-71.6509 358.466,-63.2027"/>
<polygon fill="black" stroke="black" points="361.944,-63.598 359.732,-53.2367 355,-62.7161 361.944,-63.598"/>
</g>
<!-- 13 -->
<g id="node14" class="node"><title>13</title>
<polygon fill="#c09cf2" stroke="black" points="608,-157 448,-157 448,-89 608,-89 608,-157"/>
<text text-anchor="middle" x="528" y="-141.8" font-family="Times New Roman,serif" font-size="14.00">sepal length (cm) &lt;= 5.95</text>
<text text-anchor="middle" x="528" y="-126.8" font-family="Times New Roman,serif" font-size="14.00">samples = 3</text>
<text text-anchor="middle" x="528" y="-111.8" font-family="Times New Roman,serif" font-size="14.00">value = [0, 1, 2]</text>
<text text-anchor="middle" x="528" y="-96.8" font-family="Times New Roman,serif" font-size="14.00">class = virginica</text>
</g>
<!-- 12&#45;&gt;13 -->
<g id="edge13" class="edge"><title>12&#45;&gt;13</title>
<path fill="none" stroke="black" d="M528,-192.884C528,-184.778 528,-175.982 528,-167.472"/>
<polygon fill="black" stroke="black" points="531.5,-167.299 528,-157.299 524.5,-167.299 531.5,-167.299"/>
</g>
<!-- 16 -->
<g id="node17" class="node"><title>16</title>
<polygon fill="#8139e5" stroke="black" points="738,-149.5 626,-149.5 626,-96.5 738,-96.5 738,-149.5"/>
<text text-anchor="middle" x="682" y="-134.3" font-family="Times New Roman,serif" font-size="14.00">samples = 34</text>
<text text-anchor="middle" x="682" y="-119.3" font-family="Times New Roman,serif" font-size="14.00">value = [0, 0, 34]</text>
<text text-anchor="middle" x="682" y="-104.3" font-family="Times New Roman,serif" font-size="14.00">class = virginica</text>
</g>
<!-- 12&#45;&gt;16 -->
<g id="edge16" class="edge"><title>12&#45;&gt;16</title>
<path fill="none" stroke="black" d="M577.999,-192.884C596.264,-180.786 616.85,-167.151 634.858,-155.224"/>
<polygon fill="black" stroke="black" points="637.065,-157.96 643.47,-149.52 633.2,-152.124 637.065,-157.96"/>
</g>
<!-- 14 -->
<g id="node15" class="node"><title>14</title>
<polygon fill="#39e581" stroke="black" points="574,-53 458,-53 458,-0 574,-0 574,-53"/>
<text text-anchor="middle" x="516" y="-37.8" font-family="Times New Roman,serif" font-size="14.00">samples = 1</text>
<text text-anchor="middle" x="516" y="-22.8" font-family="Times New Roman,serif" font-size="14.00">value = [0, 1, 0]</text>
<text text-anchor="middle" x="516" y="-7.8" font-family="Times New Roman,serif" font-size="14.00">class = versicolor</text>
</g>
<!-- 13&#45;&gt;14 -->
<g id="edge14" class="edge"><title>13&#45;&gt;14</title>
<path fill="none" stroke="black" d="M523.803,-88.9485C522.746,-80.6238 521.606,-71.6509 520.534,-63.2027"/>
<polygon fill="black" stroke="black" points="524,-62.7161 519.268,-53.2367 517.056,-63.598 524,-62.7161"/>
</g>
<!-- 15 -->
<g id="node16" class="node"><title>15</title>
<polygon fill="#8139e5" stroke="black" points="699.5,-53 592.5,-53 592.5,-0 699.5,-0 699.5,-53"/>
<text text-anchor="middle" x="646" y="-37.8" font-family="Times New Roman,serif" font-size="14.00">samples = 2</text>
<text text-anchor="middle" x="646" y="-22.8" font-family="Times New Roman,serif" font-size="14.00">value = [0, 0, 2]</text>
<text text-anchor="middle" x="646" y="-7.8" font-family="Times New Roman,serif" font-size="14.00">class = virginica</text>
</g>
<!-- 13&#45;&gt;15 -->
<g id="edge15" class="edge"><title>13&#45;&gt;15</title>
<path fill="none" stroke="black" d="M569.271,-88.9485C581.15,-79.4346 594.088,-69.074 605.896,-59.6175"/>
<polygon fill="black" stroke="black" points="608.246,-62.2196 613.863,-53.2367 603.87,-56.7558 608.246,-62.2196"/>
</g>
</g>
</svg>
